<svg id="Layer_5" enable-background="new 0 0 64 64" height="512" viewBox="0 0 64 64" width="512" xmlns="http://www.w3.org/2000/svg"><g><g><g><path d="m48.32 14.36c1.45-1.46 3.46-2.36 5.68-2.36 4.42 0 8 3.58 8 8s-3.58 8-8 8c0-2.21-1.79-4-4-4h-10.25c.16-.64.25-1.31.25-2 0-4.73-4.1-8.49-8.93-7.95-3.6.41-6.55 3.31-7 6.9-.14 1.06-.06 2.09.18 3.05h-10.25c-2.21 0-4 1.79-4 4-4.42 0-8-3.58-8-8 0-4.2 3.24-7.64 7.35-7.97 1.35-5.74 6.49-10.03 12.65-10.03 5.21 0 9.69 3.07 11.76 7.49 1.53-.94 3.32-1.49 5.24-1.49 4.24 0 7.86 2.64 9.32 6.36z" fill="#e6e9ed"/></g><g><path d="m23 56h18v6h-18z" fill="#aab2bd"/></g><g><path d="m54 48v4c0 2.21-1.79 4-4 4h-9-18-9c-2.21 0-4-1.79-4-4v-4z" fill="#ccd1d9"/></g><g><path d="m50 24h-36c-2.21 0-4 1.79-4 4v20h44v-20c0-2.21-1.79-4-4-4z" fill="#69d6f4"/></g><g><path d="m14 36h8v8h-8z" fill="#ff826e"/></g><g><path d="m40 40h10v4h-10z" fill="#ff826e"/></g><g><path d="m35 32v1c0 1.66-1.34 3-3 3-.83 0-1.58-.34-2.12-.88s-.88-1.29-.88-2.12v-1h3z" fill="#aab2bd"/></g><g><path d="m35 31.21v.79h-3-3v-.75c0-1-.46-1.97-1.3-2.51-1.69-1.07-2.94-2.76-3.45-4.74-.24-.96-.32-1.99-.18-3.05.45-3.59 3.4-6.49 7-6.9 4.83-.54 8.93 3.22 8.93 7.95 0 .69-.09 1.36-.25 2-.51 1.98-1.76 3.66-3.43 4.73-.84.54-1.32 1.48-1.32 2.48z" fill="#ffeaa7"/></g><g><circle cx="32" cy="22" fill="#fcd770" r="2"/></g></g><g><path d="m31 51h2v2h-2z"/><path d="m27 51h2v2h-2z"/><path d="m35 51h2v2h-2z"/><path d="m13 45h10v-10h-10zm2-8h6v6h-6z"/><path d="m13 27h10v2h-10z"/><path d="m13 31h6v2h-6z"/><path d="m21 31h2v2h-2z"/><path d="m51 39h-12v6h12zm-2 4h-8v-2h8z"/><path d="m49 35h2v2h-2z"/><path d="m39 35h8v2h-8z"/><path d="m39 31h12v2h-12z"/><path d="m43 27h8v2h-8z"/><path d="m12.247 12.778 1.951.443c.831-3.662 4.04-6.221 7.802-6.221v-2c-4.702 0-8.713 3.199-9.753 7.778z"/><path d="m63 20c0-4.962-4.037-9-9-9-1.996 0-3.836.661-5.33 1.764-1.905-3.539-5.565-5.764-9.67-5.764-1.672 0-3.318.385-4.82 1.122-2.468-4.359-7.139-7.122-12.18-7.122-6.296 0-11.727 4.127-13.443 10.123-4.291.697-7.557 4.465-7.557 8.877 0 4.624 3.507 8.442 8 8.941v23.059c0 2.757 2.243 5 5 5h8v4h-4v2h28v-2h-4v-4h8c2.757 0 5-2.243 5-5v-23.059c4.493-.499 8-4.317 8-8.941zm-35.84 9.583c.518.331.84.97.84 1.667v1.75c0 2.206 1.794 4 4 4s4-1.794 4-4v-1.792c0-.669.33-1.297.862-1.639 1.713-1.101 2.956-2.716 3.611-4.569h9.527c1.654 0 3 1.346 3 3v19h-42v-19c0-1.654 1.346-3 3-3h9.528c.653 1.852 1.893 3.472 3.632 4.583zm6.84 3.417c0 1.103-.897 2-2 2s-2-.897-2-2zm-3-11c0-.551.448-1 1-1s1 .449 1 1-.448 1-1 1-1-.449-1-1zm3.013 9h-1.013v-6.184c1.161-.414 2-1.514 2-2.816 0-1.654-1.346-3-3-3s-3 1.346-3 3c0 1.302.839 2.402 2 2.816v6.184h-1.015c-.074-1.292-.711-2.44-1.749-3.103-2.308-1.475-3.525-4.089-3.177-6.822.399-3.137 2.974-5.673 6.12-6.029.279-.031.555-.046.829-.046 1.726 0 3.354.617 4.654 1.778 1.485 1.327 2.338 3.231 2.338 5.222 0 2.39-1.203 4.591-3.22 5.887-1.056.68-1.703 1.833-1.767 3.113zm5.987 30h-16v-4h16zm10-6h-36c-1.654 0-3-1.346-3-3v-3h42v3c0 1.654-1.346 3-3 3zm4.881-28.062c-.489-2.247-2.489-3.938-4.881-3.938h-9.063c.037-.33.063-.663.063-1 0-2.56-1.096-5.007-3.006-6.713-1.908-1.706-4.47-2.516-7.039-2.228-4.052.458-7.365 3.723-7.88 7.763-.094.738-.08 1.465-.002 2.178h-9.073c-2.392 0-4.392 1.691-4.881 3.938-3.444-.435-6.119-3.377-6.119-6.938 0-3.619 2.826-6.681 6.434-6.971l.728-.058.166-.711c1.274-5.452 6.074-9.26 11.672-9.26 4.625 0 8.887 2.715 10.857 6.917l.476 1.015.955-.589c1.425-.878 3.054-1.343 4.712-1.343 3.537 0 6.655 2.03 8.132 5.197-1.327 1.568-2.132 3.592-2.132 5.803h2c0-3.86 3.141-7 7-7s7 3.14 7 7c0 3.561-2.675 6.503-6.119 6.938z"/></g></g></svg>